<?xml version="1.0" encoding="UTF-8" standalone="no"?>
<!DOCTYPE svg PUBLIC "-//W3C//DTD SVG 1.1//EN"
 "http://www.w3.org/Graphics/SVG/1.1/DTD/svg11.dtd">
<!-- Generated by graphviz version 2.44.0 (20200408.0750)
 -->
<!-- Pages: 1 -->
<svg width="756pt" height="404pt"
 viewBox="0.00 0.00 756.43 404.00" xmlns="http://www.w3.org/2000/svg" xmlns:xlink="http://www.w3.org/1999/xlink">
<g id="graph0" class="graph" transform="scale(1 1) rotate(0) translate(4 400)">
<polygon fill="white" stroke="transparent" points="-4,4 -4,-400 752.43,-400 752.43,4 -4,4"/>
<!-- [root] aws_cloudformation_stack.buildkite -->
<g id="node1" class="node">
<title>[root] aws_cloudformation_stack.buildkite</title>
<polygon fill="none" stroke="black" points="614.29,-180 399.29,-180 399.29,-144 614.29,-144 614.29,-180"/>
<text text-anchor="middle" x="506.79" y="-158.3" font-family="Times,serif" font-size="14.00">aws_cloudformation_stack.buildkite</text>
</g>
<!-- [root] aws_key_pair.buildkite -->
<g id="node2" class="node">
<title>[root] aws_key_pair.buildkite</title>
<polygon fill="none" stroke="black" points="508.29,-108 365.29,-108 365.29,-72 508.29,-72 508.29,-108"/>
<text text-anchor="middle" x="436.79" y="-86.3" font-family="Times,serif" font-size="14.00">aws_key_pair.buildkite</text>
</g>
<!-- [root] aws_cloudformation_stack.buildkite&#45;&gt;[root] aws_key_pair.buildkite -->
<g id="edge1" class="edge">
<title>[root] aws_cloudformation_stack.buildkite&#45;&gt;[root] aws_key_pair.buildkite</title>
<path fill="none" stroke="black" d="M489.49,-143.7C480.92,-135.14 470.45,-124.66 461.09,-115.3"/>
<polygon fill="black" stroke="black" points="463.44,-112.7 453.89,-108.1 458.49,-117.65 463.44,-112.7"/>
</g>
<!-- [root] var.agent_token -->
<g id="node7" class="node">
<title>[root] var.agent_token</title>
<polygon fill="none" stroke="black" points="623.29,-108 526.29,-108 526.29,-72 629.29,-72 629.29,-102 623.29,-108"/>
<polyline fill="none" stroke="black" points="623.29,-108 623.29,-102 "/>
<polyline fill="none" stroke="black" points="629.29,-102 623.29,-102 "/>
<text text-anchor="middle" x="577.79" y="-86.3" font-family="Times,serif" font-size="14.00">var.agent_token</text>
</g>
<!-- [root] aws_cloudformation_stack.buildkite&#45;&gt;[root] var.agent_token -->
<g id="edge2" class="edge">
<title>[root] aws_cloudformation_stack.buildkite&#45;&gt;[root] var.agent_token</title>
<path fill="none" stroke="black" d="M524.34,-143.7C533.02,-135.14 543.65,-124.66 553.14,-115.3"/>
<polygon fill="black" stroke="black" points="555.78,-117.62 560.44,-108.1 550.86,-112.63 555.78,-117.62"/>
</g>
<!-- [root] provider.aws -->
<g id="node5" class="node">
<title>[root] provider.aws</title>
<polygon fill="none" stroke="black" points="363.79,-36 284.69,-18 363.79,0 442.88,-18 363.79,-36"/>
<text text-anchor="middle" x="363.79" y="-14.3" font-family="Times,serif" font-size="14.00">provider.aws</text>
</g>
<!-- [root] aws_key_pair.buildkite&#45;&gt;[root] provider.aws -->
<g id="edge3" class="edge">
<title>[root] aws_key_pair.buildkite&#45;&gt;[root] provider.aws</title>
<path fill="none" stroke="black" d="M418.74,-71.7C408.69,-62.05 396.09,-49.98 385.5,-39.82"/>
<polygon fill="black" stroke="black" points="387.85,-37.22 378.21,-32.82 383,-42.27 387.85,-37.22"/>
</g>
<!-- [root] var.public_key -->
<g id="node8" class="node">
<title>[root] var.public_key</title>
<polygon fill="none" stroke="black" points="552.29,-36 461.29,-36 461.29,0 558.29,0 558.29,-30 552.29,-36"/>
<polyline fill="none" stroke="black" points="552.29,-36 552.29,-30 "/>
<polyline fill="none" stroke="black" points="558.29,-30 552.29,-30 "/>
<text text-anchor="middle" x="509.79" y="-14.3" font-family="Times,serif" font-size="14.00">var.public_key</text>
</g>
<!-- [root] aws_key_pair.buildkite&#45;&gt;[root] var.public_key -->
<g id="edge4" class="edge">
<title>[root] aws_key_pair.buildkite&#45;&gt;[root] var.public_key</title>
<path fill="none" stroke="black" d="M454.83,-71.7C463.85,-63.05 474.91,-52.45 484.73,-43.03"/>
<polygon fill="black" stroke="black" points="487.16,-45.55 491.95,-36.1 482.31,-40.5 487.16,-45.55"/>
</g>
<!-- [root] data.terraform_remote_state.root -->
<g id="node3" class="node">
<title>[root] data.terraform_remote_state.root</title>
<polygon fill="none" stroke="black" points="302.29,-252 105.29,-252 105.29,-216 302.29,-216 302.29,-252"/>
<text text-anchor="middle" x="203.79" y="-230.3" font-family="Times,serif" font-size="14.00">data.terraform_remote_state.root</text>
</g>
<!-- [root] provider.terraform -->
<g id="node6" class="node">
<title>[root] provider.terraform</title>
<polygon fill="none" stroke="black" points="203.79,-180 96.21,-162 203.79,-144 311.37,-162 203.79,-180"/>
<text text-anchor="middle" x="203.79" y="-158.3" font-family="Times,serif" font-size="14.00">provider.terraform</text>
</g>
<!-- [root] data.terraform_remote_state.root&#45;&gt;[root] provider.terraform -->
<g id="edge5" class="edge">
<title>[root] data.terraform_remote_state.root&#45;&gt;[root] provider.terraform</title>
<path fill="none" stroke="black" d="M203.79,-215.7C203.79,-207.98 203.79,-198.71 203.79,-190.11"/>
<polygon fill="black" stroke="black" points="207.29,-190.1 203.79,-180.1 200.29,-190.1 207.29,-190.1"/>
</g>
<!-- [root] output.secrets_bucket -->
<g id="node4" class="node">
<title>[root] output.secrets_bucket</title>
<polygon fill="none" stroke="black" points="507.79,-252 379.79,-252 379.79,-216 513.79,-216 513.79,-246 507.79,-252"/>
<polyline fill="none" stroke="black" points="507.79,-252 507.79,-246 "/>
<polyline fill="none" stroke="black" points="513.79,-246 507.79,-246 "/>
<text text-anchor="middle" x="446.79" y="-230.3" font-family="Times,serif" font-size="14.00">output.secrets_bucket</text>
</g>
<!-- [root] output.secrets_bucket&#45;&gt;[root] aws_cloudformation_stack.buildkite -->
<g id="edge8" class="edge">
<title>[root] output.secrets_bucket&#45;&gt;[root] aws_cloudformation_stack.buildkite</title>
<path fill="none" stroke="black" d="M461.62,-215.7C468.81,-207.3 477.59,-197.07 485.48,-187.86"/>
<polygon fill="black" stroke="black" points="488.28,-189.97 492.13,-180.1 482.96,-185.42 488.28,-189.97"/>
</g>
<!-- [root] meta.count&#45;boundary (EachMode fixup) -->
<g id="node9" class="node">
<title>[root] meta.count&#45;boundary (EachMode fixup)</title>
<ellipse fill="none" stroke="black" cx="443.79" cy="-306" rx="176.27" ry="18"/>
<text text-anchor="middle" x="443.79" y="-302.3" font-family="Times,serif" font-size="14.00">[root] meta.count&#45;boundary (EachMode fixup)</text>
</g>
<!-- [root] meta.count&#45;boundary (EachMode fixup)&#45;&gt;[root] data.terraform_remote_state.root -->
<g id="edge6" class="edge">
<title>[root] meta.count&#45;boundary (EachMode fixup)&#45;&gt;[root] data.terraform_remote_state.root</title>
<path fill="none" stroke="black" d="M388.43,-288.85C353.73,-278.73 308.77,-265.62 271.9,-254.87"/>
<polygon fill="black" stroke="black" points="272.8,-251.48 262.22,-252.04 270.84,-258.2 272.8,-251.48"/>
</g>
<!-- [root] meta.count&#45;boundary (EachMode fixup)&#45;&gt;[root] output.secrets_bucket -->
<g id="edge7" class="edge">
<title>[root] meta.count&#45;boundary (EachMode fixup)&#45;&gt;[root] output.secrets_bucket</title>
<path fill="none" stroke="black" d="M444.53,-287.7C444.86,-279.98 445.26,-270.71 445.63,-262.11"/>
<polygon fill="black" stroke="black" points="449.12,-262.25 446.06,-252.1 442.13,-261.95 449.12,-262.25"/>
</g>
<!-- [root] provider.aws (close) -->
<g id="node10" class="node">
<title>[root] provider.aws (close)</title>
<ellipse fill="none" stroke="black" cx="643.79" cy="-234" rx="104.78" ry="18"/>
<text text-anchor="middle" x="643.79" y="-230.3" font-family="Times,serif" font-size="14.00">[root] provider.aws (close)</text>
</g>
<!-- [root] provider.aws (close)&#45;&gt;[root] aws_cloudformation_stack.buildkite -->
<g id="edge9" class="edge">
<title>[root] provider.aws (close)&#45;&gt;[root] aws_cloudformation_stack.buildkite</title>
<path fill="none" stroke="black" d="M612.01,-216.76C593.37,-207.24 569.57,-195.08 549.32,-184.73"/>
<polygon fill="black" stroke="black" points="550.8,-181.56 540.3,-180.12 547.62,-187.79 550.8,-181.56"/>
</g>
<!-- [root] provider.terraform (close) -->
<g id="node11" class="node">
<title>[root] provider.terraform (close)</title>
<ellipse fill="none" stroke="black" cx="124.79" cy="-306" rx="124.58" ry="18"/>
<text text-anchor="middle" x="124.79" y="-302.3" font-family="Times,serif" font-size="14.00">[root] provider.terraform (close)</text>
</g>
<!-- [root] provider.terraform (close)&#45;&gt;[root] data.terraform_remote_state.root -->
<g id="edge10" class="edge">
<title>[root] provider.terraform (close)&#45;&gt;[root] data.terraform_remote_state.root</title>
<path fill="none" stroke="black" d="M143.91,-288.05C153.83,-279.26 166.12,-268.38 176.97,-258.76"/>
<polygon fill="black" stroke="black" points="179.4,-261.28 184.57,-252.03 174.76,-256.04 179.4,-261.28"/>
</g>
<!-- [root] root -->
<g id="node12" class="node">
<title>[root] root</title>
<ellipse fill="none" stroke="black" cx="443.79" cy="-378" rx="47.39" ry="18"/>
<text text-anchor="middle" x="443.79" y="-374.3" font-family="Times,serif" font-size="14.00">[root] root</text>
</g>
<!-- [root] root&#45;&gt;[root] meta.count&#45;boundary (EachMode fixup) -->
<g id="edge11" class="edge">
<title>[root] root&#45;&gt;[root] meta.count&#45;boundary (EachMode fixup)</title>
<path fill="none" stroke="black" d="M443.79,-359.7C443.79,-351.98 443.79,-342.71 443.79,-334.11"/>
<polygon fill="black" stroke="black" points="447.29,-334.1 443.79,-324.1 440.29,-334.1 447.29,-334.1"/>
</g>
<!-- [root] root&#45;&gt;[root] provider.aws (close) -->
<g id="edge12" class="edge">
<title>[root] root&#45;&gt;[root] provider.aws (close)</title>
<path fill="none" stroke="black" d="M491.34,-376.79C533.74,-373.9 594.28,-362.61 628.79,-324 643.68,-307.34 646.63,-281.63 646.33,-262.11"/>
<polygon fill="black" stroke="black" points="649.82,-261.84 645.88,-252.01 642.83,-262.15 649.82,-261.84"/>
</g>
<!-- [root] root&#45;&gt;[root] provider.terraform (close) -->
<g id="edge13" class="edge">
<title>[root] root&#45;&gt;[root] provider.terraform (close)</title>
<path fill="none" stroke="black" d="M403.71,-368.21C352.8,-357.03 263.92,-337.53 200.16,-323.54"/>
<polygon fill="black" stroke="black" points="200.67,-320.07 190.15,-321.34 199.17,-326.9 200.67,-320.07"/>
</g>
</g>
</svg>
